<svg xmlns="http://www.w3.org/2000/svg" xmlns:xlink="http://www.w3.org/1999/xlink" width="64" height="64"><defs><linearGradient id="a"><stop offset="0" stop-color="#ff1679"/><stop offset="1" stop-color="#ff770b"/></linearGradient><linearGradient id="b" x1="992.183" x2="1019.298" y1="516.081" y2="545.959" gradientTransform="translate(-892.976 -355.816) scale(1.02524)" gradientUnits="userSpaceOnUse" xlink:href="#a"/></defs><g transform="translate(-122.16 -172.864)"><rect width="32" height="32" x="122.161" y="172.864" fill="url(#b)" rx="6.763" ry="6.763"/><path fill="#fff" d="M131.472 181.208c-.303 0-.616.147-.843.375-.228.151-.398.446-.625.75-.38.53-.58 1.3-.656 1.906-.077.607.071 1.22.374 1.75.304.38.75.674 1.282.75v3.5c-.076 0-.08.063-.156.063-.152.075-.22.24-.22.468 0 1.745-.218 3.01-.218 4.906 0 .228.13.474.281.626.152.151.398.218.625.218.228 0 .442-.067.594-.219.152-.151.313-.303.313-.53 0-1.593-.157-3.421-.157-4.938 0-.228-.143-.362-.219-.438-.076-.076-.098-.094-.25-.094v-3.5c.607-.075 1.072-.277 1.375-.656.304-.379.3-.857.375-1.312v-.125c.076-.683-.227-1.456-.53-2.063a1.758 1.758 0 0 0-.532-1.062c-.227-.228-.51-.375-.813-.375zm14.313 1.594c-.227.075-.313.16-.313.312v3.031a.403.403 0 0 1-.218-.375v-2.125c0-.151-.148-.388-.375-.312-.152 0-.219.16-.219.312v2.188c0 .53.357.91.813 1.062v3.25c-.077 0-.05.094-.126.094-.151.076-.25.228-.25.531 0 1.745-.125 3.01-.125 4.906 0 .228.13.474.282.626.151.151.397.218.625.218.227 0 .38-.067.531-.219.152-.151.281-.321.281-.624 0-1.593-.156-3.39-.156-4.907 0-.227-.143-.38-.219-.531-.076-.076-.08-.094-.156-.094v-3.25c.455-.151.844-.531.844-1.062v-2.188c0-.151-.161-.312-.313-.312-.151 0-.281.16-.281.312v2.188c0 .151-.099.299-.25.375v-3.031c-.076-.228-.223-.375-.375-.375zm-7.281 1.28c-2.503 0-4.531 2.043-4.531 4.47 0 2.426 2.028 4.468 4.53 4.468 2.503 0 4.563-2.042 4.563-4.469 0-2.426-2.06-4.468-4.562-4.468zm0 .626c2.123 0 3.875 1.72 3.875 3.844 0 2.123-1.752 3.875-3.875 3.875-2.124 0-3.938-1.752-3.938-3.875.076-2.124 1.814-3.844 3.938-3.844zm0 .906a2.927 2.927 0 0 0-2.938 2.938 2.954 2.954 0 0 0 2.938 2.968c1.668 0 3.031-1.376 3.031-2.969 0-1.592-1.363-2.937-3.031-2.937z"/></g></svg>